<?xml version="1.0" encoding="UTF-8"?>
<svg width="218px" height="121px" viewBox="0 0 218 121" version="1.1" xmlns="http://www.w3.org/2000/svg" xmlns:xlink="http://www.w3.org/1999/xlink">
    <!-- Generator: Sketch 40.3 (33839) - http://www.bohemiancoding.com/sketch -->
    <title>profile</title>
    <desc>Created with Sketch.</desc>
    <defs></defs>
    <g id="logo" stroke="none" stroke-width="1" fill="none" fill-rule="evenodd">
        <g id="profile" transform="translate(-19.000000, -67.000000)">
            <rect id="Rectangle-2" x="0" y="0" width="256" height="256"></rect>
            <g id="Group-3" transform="translate(21.000000, 69.000000)" stroke="#FFFFFF" stroke-width="4">
                <path d="M186.216545,64.8103234 C186.071727,64.8103234 185.931818,64.8293099 185.787,64.8316832 C185.787,64.8245633 185.789455,64.8174433 185.789455,64.8103234 C185.789455,36.6272785 162.159545,13.7794323 133.011818,13.7794323 C111.726,13.7794323 93.4298182,25.9901074 85.0843636,43.5407278 C79.5321818,40.7093701 73.2190909,39.0884 66.5034545,39.0884 C49.0958182,39.0884 34.3292727,49.8893294 28.8752727,64.9218689 C28.1241818,64.8625362 27.3706364,64.8126967 26.6023636,64.8126967 C11.907,64.8126967 0,76.3279922 0,90.5346202 C0,104.741248 11.9094545,116.256544 26.6023636,116.256544 L186.219,116.256544 C200.914364,116.256544 212.821364,104.738875 212.821364,90.5346202 C212.818909,76.3256189 200.909455,64.8103234 186.216545,64.8103234 L186.216545,64.8103234 Z" id="Shape"></path>
                <ellipse id="Oval" cx="200.293364" cy="13.0531998" rx="13.5" ry="13.0531998"></ellipse>
            </g>
        </g>
    </g>
</svg>