<?xml version="1.0" encoding="UTF-8"?>
<svg width="362px" height="47px" viewBox="0 0 362 47" version="1.1" xmlns="http://www.w3.org/2000/svg" xmlns:xlink="http://www.w3.org/1999/xlink">
    <!-- Generator: Sketch 40.3 (33839) - http://www.bohemiancoding.com/sketch -->
    <title>logo copy 2</title>
    <desc>Created with Sketch.</desc>
    <defs></defs>
    <g id="Page-1" stroke="none" stroke-width="1" fill="none" fill-rule="evenodd">
        <g id="logo-copy-2" transform="translate(0.000000, -8.000000)" fill="#FFFFFF">
            <text id="SensorFlow" font-family="Roboto-Regular, Roboto" font-size="54" font-weight="normal">
                <tspan x="76" y="50">Senso</tspan>
                <tspan x="226.899414" y="50" letter-spacing="2.25">r</tspan>
                <tspan x="248.054688" y="50">Flow</tspan>
            </text>
            <g id="Group-2" transform="translate(0.000000, 8.000000)">
                <g id="Group">
                    <path d="M23.5,47 C36.4786916,47 47,36.4786916 47,23.5 C47,10.5213084 36.4786916,0 23.5,0 C10.5213084,0 0,10.5213084 0,23.5 C0,36.4786916 10.5213084,47 23.5,47 Z M23.5,41 C33.1649831,41 41,33.1649831 41,23.5 C41,13.8350169 33.1649831,6 23.5,6 C13.8350169,6 6,13.8350169 6,23.5 C6,33.1649831 13.8350169,41 23.5,41 Z" id="Combined-Shape"></path>
                    <path d="M59.5012679,11.0306797 L59.4705882,11 L39,31.4705882 L42.5319476,35.0025359 L59.5012679,18.0332156 L76.4705882,35.0025359 L80.0025359,31.4705882 L59.5319476,11 L59.5012679,11.0306797 Z" id="Combined-Shape" transform="translate(59.501268, 23.001268) scale(-1, 1) rotate(-90.000000) translate(-59.501268, -23.001268) "></path>
                </g>
            </g>
        </g>
    </g>
</svg>